<?xml version="1.0" encoding="utf-8"?>
<!-- Generator: Adobe Illustrator 13.0.0, SVG Export Plug-In . SVG Version: 6.00 Build 14948)  -->
<!DOCTYPE svg PUBLIC "-//W3C//DTD SVG 1.1//EN" "http://www.w3.org/Graphics/SVG/1.1/DTD/svg11.dtd">
<svg version="1.1"
	 id="svg3939" xmlns:dc="http://purl.org/dc/elements/1.1/" xmlns:cc="http://creativecommons.org/ns#" xmlns:rdf="http://www.w3.org/1999/02/22-rdf-syntax-ns#" xmlns:svg="http://www.w3.org/2000/svg" xmlns:sodipodi="http://sodipodi.sourceforge.net/DTD/sodipodi-0.dtd" xmlns:inkscape="http://www.inkscape.org/namespaces/inkscape" inkscape:export-filename="C:\Users\ebento.QVGLOBAL\Desktop\snes8x.png" inkscape:export-ydpi="11.842467" inkscape:export-xdpi="11.842467" inkscape:version="0.48.2 r9819" sodipodi:docname="New document 9"
	 xmlns="http://www.w3.org/2000/svg" xmlns:xlink="http://www.w3.org/1999/xlink" x="0px" y="0px" width="744.094px"
	 height="1052.363px" viewBox="0 0 744.094 1052.363" enable-background="new 0 0 744.094 1052.363" xml:space="preserve">
<sodipodi:namedview  id="base" inkscape:zoom="0.35" inkscape:cx="375" inkscape:cy="520" pagecolor="#ffffff" showgrid="false" bordercolor="#666666" borderopacity="1.0" inkscape:window-maximized="0" inkscape:pageopacity="0.0" inkscape:pageshadow="2" inkscape:document-units="px" inkscape:current-layer="layer1" inkscape:window-width="469" inkscape:window-height="425" inkscape:window-x="50" inkscape:window-y="50">
	</sodipodi:namedview>
<g id="layer1" inkscape:label="Layer 1" inkscape:groupmode="layer">
	<path id="path3083" inkscape:connector-curvature="0" fill="#FFFFFF" d="M220.531,481.418v-22.722
		c-0.023-2.774,0.808-3.511,3.625-3.534h20.903c2.164,0.369,2.675,1.814,2.812,3.534v22.722h21.627
		c3.338-0.114,5.667,0.889,5.616,4.521l0.173,19.638c-0.183,2.418-1.524,4.062-5.789,3.76h-21.627v22.397
		c0.513,2.578,0.076,4.394-2.812,4.249h-20.903c-2.096,0.062-3.572-0.909-3.625-4.249v-22.397h-21.446
		c-4.069-0.069-4.199-1.143-4.252-3.76l-0.18-19.638c-0.084-2.418,0.467-4.471,4.433-4.521H220.531L220.531,481.418z
		 M393.615,498.915l0.467,0.564c2.592,3.198,2.438,7.567-0.319,9.828l-21.597,17.561c-2.767,2.261-7.082,1.506-9.681-1.689
		l-0.452-0.556c-2.601-3.18-2.459-7.575,0.307-9.828l21.597-17.558C386.706,494.983,391.019,495.737,393.615,498.915
		L393.615,498.915z M342.121,499.466l0.459,0.559c2.594,3.186,2.451,7.572-0.317,9.826l-21.589,17.567
		c-2.771,2.253-7.092,1.499-9.683-1.689l-0.46-0.566c-2.593-3.188-2.456-7.565,0.315-9.826l21.599-17.56
		C335.211,495.516,339.53,496.271,342.121,499.466L342.121,499.466z M525.551,448.163c7.61,10.143,6.076,24.083-3.465,31.244
		l-48.064,36.096c-9.525,7.161-23.344,4.748-30.954-5.403c-7.631-10.143-6.092-24.078,3.449-31.244l48.06-36.091
		C504.122,435.606,517.94,438.012,525.551,448.163L525.551,448.163z M571.056,483.128c7.534,10.204,5.903,24.121-3.684,31.221
		l-48.304,35.765c-9.581,7.093-23.39,4.591-30.938-5.613c-7.55-10.188-5.909-24.117,3.662-31.214l48.335-35.766
		C549.698,470.422,563.491,472.924,571.056,483.128L571.056,483.128z M289.633,495.577c0,30.391-24.477,55.027-54.664,55.027
		c-30.198,0-54.665-24.637-54.665-55.027c0-30.385,24.467-55.027,54.665-55.027C265.156,440.55,289.633,465.192,289.633,495.577z
		 M300.282,575.315h138.411c40.12,31.079,84.405,25.358,115.451,6.843c58.235-34.703,66.72-120.492,12.492-161.925
		c-16.384-12.515-31.498-21.462-70.957-21.507l-254.735-1.085c-20.037-0.322-45.07,3.859-65.417,22.592
		c-59.519,54.809-36.038,133.392,9.381,161.925C239.25,616.309,287.042,588.488,300.282,575.315L300.282,575.315z M593.358,495.577
		c0,49.384-39.459,89.422-88.154,89.422c-48.68,0-88.139-40.038-88.139-89.422c0-49.383,39.459-89.411,88.139-89.411
		C553.899,406.166,593.358,446.194,593.358,495.577L593.358,495.577z"/>
	
		<path id="path3853" sodipodi:ry="25.357143" sodipodi:cy="760.93359" sodipodi:rx="26.071428" sodipodi:type="arc" sodipodi:cx="541.78571" fill="#000CFF" d="
		M524.154,462.207c0.01,10.046-8.459,18.193-18.92,18.2c-10.47,0.016-18.959-8.116-18.959-18.154c0-0.013,0-0.028,0-0.046
		c-0.016-10.028,8.453-18.175,18.914-18.19c10.46-0.015,18.965,8.124,18.965,18.154
		C524.154,462.184,524.154,462.202,524.154,462.207z"/>
	
		<path id="path3853-5" sodipodi:ry="25.357143" sodipodi:cy="760.93359" sodipodi:rx="26.071428" sodipodi:type="arc" sodipodi:cx="541.78571" fill="#01FF0C" d="
		M481.256,495.577c0.015,10.039-8.469,18.183-18.93,18.2c-10.445,0.008-18.944-8.116-18.96-18.154c0-0.015,0-0.031,0-0.046
		c-0.015-10.031,8.454-18.185,18.93-18.19c10.46-0.015,18.944,8.113,18.96,18.154C481.256,495.547,481.256,495.562,481.256,495.577z
		"/>
	
		<path id="path3853-51" sodipodi:ry="25.357143" sodipodi:cy="760.93359" sodipodi:rx="26.071428" sodipodi:type="arc" sodipodi:cx="541.78571" fill="#FF0400" d="
		M570.599,495.577c0.015,10.039-8.464,18.183-18.925,18.2c-10.465,0.008-18.965-8.116-18.965-18.154c0-0.015,0-0.031,0-0.046
		c-0.015-10.031,8.459-18.185,18.914-18.19c10.461-0.015,18.965,8.113,18.976,18.154
		C570.599,495.547,570.599,495.562,570.599,495.577z"/>
	
		<path id="path3853-7" sodipodi:ry="25.357143" sodipodi:cy="760.93359" sodipodi:rx="26.071428" sodipodi:type="arc" sodipodi:cx="541.78571" fill="#FFFF00" d="
		M524.154,531.584c0.01,10.039-8.459,18.19-18.92,18.198c-10.47,0.018-18.959-8.116-18.959-18.163c0-0.005,0-0.013,0-0.035
		c-0.016-10.039,8.453-18.177,18.914-18.19c10.46-0.018,18.965,8.116,18.965,18.152
		C524.154,531.562,524.154,531.568,524.154,531.584z"/>
</g>
</svg>
